<?xml version="1.0" encoding="utf-8"?>
<!-- Generator: Adobe Illustrator 16.0.0, SVG Export Plug-In . SVG Version: 6.00 Build 0)  -->
<!DOCTYPE svg PUBLIC "-//W3C//DTD SVG 1.1//EN" "http://www.w3.org/Graphics/SVG/1.1/DTD/svg11.dtd">
<svg version="1.1" xmlns="http://www.w3.org/2000/svg" xmlns:xlink="http://www.w3.org/1999/xlink" x="0px" y="0px" width="62px"
	 height="62px" viewBox="0 0 62 62" enable-background="new 0 0 62 62" xml:space="preserve">
<g id="Layer_2">
</g>
<g id="Layer_1">
	<g>
		<rect x="0.42" y="0.415" fill="#FFFFFF" width="61.174" height="61.172"/>
		<g>
			<defs>
				<rect id="SVGID_1_" width="62" height="62"/>
			</defs>
			<clipPath id="SVGID_2_">
				<use xlink:href="#SVGID_1_"  overflow="visible"/>
			</clipPath>
			<path clip-path="url(#SVGID_2_)" fill="#F6EC36" d="M0.42,61.587h61.174V0.415H0.42V61.587z M57.523,25.842
				c-0.101,1.905-0.707,4.281-1.242,5.868c-2.15,6.39-4.645,10.353-10.42,10.353c-1.7,0-4.717-0.451-5.829-3.477l-0.263-0.718
				l-0.474,0.6c-1.807,2.288-4.49,3.608-7.363,3.622c-2.203,0.01-3.975-0.728-5.12-2.136l-0.313-0.387l-0.335,0.37
				c-1.224,1.351-3.354,2.125-5.847,2.125c-1.956,0-3.646-0.666-4.757-1.871l-0.303-0.329l-0.315,0.318
				C13.707,41.428,11.76,42.057,9.312,42c-2.971-0.071-4.779-1.729-4.838-4.436c-0.09-4.175,3.951-12.958,5.623-15.629
				c1.086-1.784,2.579-2.649,4.566-2.649c1.353,0,2.277,0.283,2.827,0.865c0.5,0.53,0.6,0.977,0.644,2.051l0.058,1.389l0.733-1.181
				c1.773-2.857,4.713-3.252,7.625-3.252c2.024,0,3.791,0.745,4.5,1.897l0.263,0.424l0.379-0.322
				c1.501-1.275,3.618-1.978,5.962-1.978c2.559,0,4.418,0.636,5.526,1.891c0.252,0.285,0.419,0.484,0.65,0.971l0.285,0.598
				l0.427-0.505c1.624-1.92,3.841-2.894,6.591-2.894c2.179,0,3.833,0.58,4.915,1.722C57.406,22.391,57.6,24.405,57.523,25.842z"/>
			<path clip-path="url(#SVGID_2_)" fill="#D01012" d="M0.42,61.587h61.174V0.415H0.42V61.587z M59.246,28.189
				c-0.276,2.227-1.781,6.351-2.58,8c-2.146,4.419-5.011,7.814-10.531,7.814c-2.949,0-5.376-0.94-6.794-2.749
				c-2.078,1.821-4.649,2.774-7.418,2.774c-2.133,0-4.018-0.616-5.455-1.755c-1.587,1.118-3.728,1.741-6.1,1.741
				c-1.981,0-3.765-0.544-5.16-1.55c-1.544,1.024-3.567,1.534-5.941,1.477c-3.952-0.093-6.681-2.6-6.759-6.239
				c-0.104-4.834,3.968-13.682,5.887-16.746c1.436-2.359,3.627-3.628,6.312-3.628c2.915,0,3.972,0.833,4.491,1.893
				c2.249-1.91,5.23-2.02,7.353-2.02c2.344,0,3.813,0.622,5.063,1.617c1.728-1.036,3.709-1.574,6.068-1.574
				c3.017,0,5.259,0.702,6.822,2.247c1.823-1.518,4.106-2.209,6.662-2.209c3.379,0,5.603,1.219,6.908,3.036
				C59.914,22.882,59.585,25.462,59.246,28.189"/>
			<path clip-path="url(#SVGID_2_)" d="M0,62h62V0H0V62z M61.147,61.148H0.854V0.854h60.294V61.148z"/>
			<path clip-path="url(#SVGID_2_)" d="M58.947,18.604v-0.422h0.286c0.21,0,0.319,0.073,0.319,0.209c0,0.108-0.07,0.212-0.283,0.212
				H58.947z M59.976,19.48l-0.178-0.31c-0.155-0.271-0.198-0.314-0.331-0.36v-0.008c0.261-0.031,0.416-0.198,0.416-0.43
				c0-0.245-0.155-0.431-0.485-0.431H58.63v1.54h0.318v-0.63h0.059c0.136,0,0.189,0.015,0.252,0.077
				c0.062,0.063,0.154,0.194,0.209,0.302l0.125,0.251L59.976,19.48z M59.219,17.513c0.66,0,1.197,0.533,1.197,1.192
				S59.878,19.9,59.219,19.9s-1.189-0.536-1.189-1.195S58.56,17.513,59.219,17.513 M59.219,17.22c-0.821,0-1.484,0.663-1.484,1.485
				s0.663,1.485,1.484,1.485c0.823,0,1.486-0.663,1.486-1.485C60.706,17.882,60.042,17.22,59.219,17.22"/>
			<path clip-path="url(#SVGID_2_)" d="M51.133,18.811c-3.204,0-5.418,1.271-6.917,3.045c-0.253-0.531-0.445-0.764-0.716-1.07
				c-1.228-1.387-3.199-2.034-5.847-2.034c-2.586,0-4.742,0.808-6.239,2.08c-0.777-1.264-2.63-2.101-4.864-2.101
				c-2.92,0-6.102,0.413-7.988,3.454c-0.046-1.095-0.145-1.674-0.761-2.326c-0.748-0.792-1.958-0.999-3.138-0.999
				c-2.148,0-3.764,0.939-4.928,2.85c-1.688,2.696-5.78,11.567-5.688,15.863c0.06,2.775,1.922,4.775,5.254,4.854
				c2.604,0.062,4.646-0.634,5.945-1.945c1.165,1.267,2.943,2.01,5.072,2.01c2.369,0,4.754-0.712,6.163-2.267
				c1.186,1.458,3.053,2.306,5.454,2.294c3.139-0.015,5.896-1.504,7.695-3.785c0.988,2.689,3.493,3.758,6.23,3.758
				c5.997,0,8.63-4.125,10.825-10.644c0.495-1.469,1.155-3.921,1.265-5.981C58.133,22.438,56.682,18.811,51.133,18.811z
				 M11.23,35.205c3.103-0.539,3.883,0.583,3.785,1.622c-0.293,3.11-3.146,3.805-5.623,3.747c-1.797-0.044-3.412-0.866-3.457-2.952
				c-0.079-3.649,3.643-12.092,5.395-14.89c0.81-1.328,1.796-1.985,3.368-1.985c1.489,0,1.858,0.765,1.837,1.682
				C16.477,24.873,12.526,32.302,11.23,35.205L11.23,35.205z M21.335,32.338c-0.206,0.556-0.594,1.719-0.908,2.953
				c1.018-0.254,1.782-0.431,3.09-0.4c1.491,0.037,2.444,0.655,2.444,1.887c0,2.989-3.304,3.866-5.595,3.866
				c-2.516,0-4.726-1.433-4.726-4.184c0-3.225,1.748-8.116,3.389-11.374c2.016-4.001,4.074-4.533,7.62-4.533
				c1.559,0,3.354,0.667,3.354,2.139c0,2.039-1.729,2.817-3.441,2.916c-0.731,0.042-1.857,0.082-2.531,0.034
				c0,0-0.569,0.869-1.176,2.417c3.173-0.447,4.518,0.273,3.982,2.108C26.113,32.646,23.965,32.809,21.335,32.338z M36.938,24.625
				c-0.857,0-1.419,0.543-1.836,1.13c-0.92,1.291-2.912,6.466-3.223,8.591c-0.212,1.456,0.416,1.752,1.104,1.752
				c1.103,0,2.338-1.167,2.76-3.09c0,0-2.099-0.051-1.52-1.912c0.562-1.806,1.628-2.197,3.396-2.269
				c3.483-0.143,3.14,2.429,2.86,3.8c-0.905,4.453-4.074,8.029-8.558,8.029c-3.068,0-4.974-1.698-4.974-4.827
				c0-2.23,1.106-5.731,1.983-7.78c1.866-4.36,3.824-7.412,8.812-7.412c2.992,0,5.353,1.076,5.006,3.878
				c-0.254,2.058-1.283,3.266-3.154,3.412c-0.522,0.041-2.663-0.013-1.953-2.038C37.888,25.182,37.99,24.625,36.938,24.625
				L36.938,24.625z M55.772,28.306c-0.526,2.625-1.713,5.731-3,8.045c-2.101,3.776-4.651,4.306-6.878,4.279
				c-2.229-0.027-4.737-0.849-4.757-4.285c-0.014-2.467,1.05-5.948,1.953-8.23c1.574-4.137,3.184-7.511,8.27-7.45
				C57.292,20.735,56.234,26.009,55.772,28.306 M50.741,24.711c-0.509-0.007-0.953,0.093-1.353,0.708
				c-0.897,1.163-3.521,8.33-3.475,9.76c0.017,0.514,0.301,0.963,0.934,0.963c0.726,0,1.129-0.501,1.485-1.106
				c0.825-1.397,3.146-7.732,3.211-9.316C51.562,25.258,51.485,24.721,50.741,24.711z"/>
		</g>
	</g>
</g>
</svg>
